{
	"asset":{
		"generator":"Khronos glTF Blender I/O v4.3.47",
		"version":"2.0"
	},
	"extensionsUsed":[
		"KHR_materials_specular",
		"KHR_materials_ior"
	],
	"scene":0,
	"scenes":[
		{
			"name":"Scene",
			"nodes":[
				0,
				1,
				2,
				3,
				4,
				5
			]
		}
	],
	"nodes":[
		{
			"mesh":0,
			"name":"Arms",
			"rotation":[
				0,
				0.7071068286895752,
				0,
				0.7071068286895752
			],
			"scale":[
				24.999998092651367,
				25,
				24.999998092651367
			],
			"translation":[
				-2,
				-7.5,
				0
			]
		},
		{
			"mesh":1,
			"name":"Head",
			"rotation":[
				0,
				0.7071068286895752,
				0,
				0.7071068286895752
			],
			"scale":[
				24.999998092651367,
				25,
				24.999998092651367
			],
			"translation":[
				-2,
				-7.5,
				0
			]
		},
		{
			"mesh":2,
			"name":"Pants",
			"rotation":[
				0,
				0.7071068286895752,
				0,
				0.7071068286895752
			],
			"scale":[
				24.999998092651367,
				25,
				24.999998092651367
			],
			"translation":[
				-2,
				-7.5,
				0
			]
		},
		{
			"mesh":3,
			"name":"Shoes",
			"rotation":[
				0,
				0.7071068286895752,
				0,
				0.7071068286895752
			],
			"scale":[
				24.999998092651367,
				25,
				24.999998092651367
			],
			"translation":[
				-2,
				-7.5,
				0
			]
		},
		{
			"mesh":4,
			"name":"Torso",
			"rotation":[
				0,
				0.7071068286895752,
				0,
				0.7071068286895752
			],
			"scale":[
				24.999998092651367,
				25,
				24.999998092651367
			],
			"translation":[
				-2,
				-7.5,
				0
			]
		},
		{
			"mesh":5,
			"name":"Vest",
			"rotation":[
				0,
				0.7071068286895752,
				0,
				0.7071068286895752
			],
			"scale":[
				24.999998092651367,
				25,
				24.999998092651367
			],
			"translation":[
				-2,
				-7.5,
				0
			]
		}
	],
	"materials":[
		{
			"doubleSided":true,
			"extensions":{
				"KHR_materials_specular":{
					"specularFactor":0.45588234066963196
				},
				"KHR_materials_ior":{
					"ior":1.4500000476837158
				}
			},
			"name":"All_texture.002",
			"pbrMetallicRoughness":{
				"baseColorTexture":{
					"index":0
				},
				"metallicFactor":0.1985294222831726
			}
		}
	],
	"meshes":[
		{
			"name":"Mesh.013",
			"primitives":[
				{
					"attributes":{
						"POSITION":0,
						"NORMAL":1,
						"TEXCOORD_0":2
					},
					"indices":3,
					"material":0
				}
			]
		},
		{
			"name":"Mesh.016",
			"primitives":[
				{
					"attributes":{
						"POSITION":4,
						"NORMAL":5,
						"TEXCOORD_0":6
					},
					"indices":7,
					"material":0
				}
			]
		},
		{
			"name":"Mesh.012",
			"primitives":[
				{
					"attributes":{
						"POSITION":8,
						"NORMAL":9,
						"TEXCOORD_0":10
					},
					"indices":11,
					"material":0
				}
			]
		},
		{
			"name":"Mesh.015",
			"primitives":[
				{
					"attributes":{
						"POSITION":12,
						"NORMAL":13,
						"TEXCOORD_0":14
					},
					"indices":15,
					"material":0
				}
			]
		},
		{
			"name":"Mesh.017",
			"primitives":[
				{
					"attributes":{
						"POSITION":16,
						"NORMAL":17,
						"TEXCOORD_0":18
					},
					"indices":19,
					"material":0
				}
			]
		},
		{
			"name":"Mesh.014",
			"primitives":[
				{
					"attributes":{
						"POSITION":20,
						"NORMAL":21,
						"TEXCOORD_0":22
					},
					"indices":23,
					"material":0
				}
			]
		}
	],
	"textures":[
		{
			"sampler":0,
			"source":0
		}
	],
	"images":[
		{
			"mimeType":"image/jpeg",
			"name":"retexture",
			"uri":"retexture.jpg"
		}
	],
	"accessors":[
		{
			"bufferView":0,
			"componentType":5126,
			"count":1128,
			"max":[
				0.7111929655075073,
				1.4219954013824463,
				0.1663914918899536
			],
			"min":[
				-0.7111929655075073,
				0.943717896938324,
				-0.03232880309224129
			],
			"type":"VEC3"
		},
		{
			"bufferView":1,
			"componentType":5126,
			"count":1128,
			"type":"VEC3"
		},
		{
			"bufferView":2,
			"componentType":5126,
			"count":1128,
			"type":"VEC2"
		},
		{
			"bufferView":3,
			"componentType":5123,
			"count":2328,
			"type":"SCALAR"
		},
		{
			"bufferView":4,
			"componentType":5126,
			"count":443,
			"max":[
				0.23701944947242737,
				1.977779746055603,
				0.3048534095287323
			],
			"min":[
				-0.23701466619968414,
				1.619173526763916,
				-0.23749206960201263
			],
			"type":"VEC3"
		},
		{
			"bufferView":5,
			"componentType":5126,
			"count":443,
			"type":"VEC3"
		},
		{
			"bufferView":6,
			"componentType":5126,
			"count":443,
			"type":"VEC2"
		},
		{
			"bufferView":7,
			"componentType":5123,
			"count":1296,
			"type":"SCALAR"
		},
		{
			"bufferView":8,
			"componentType":5126,
			"count":225,
			"max":[
				0.27891772985458374,
				1.0979726314544678,
				0.20223665237426758
			],
			"min":[
				-0.2789129614830017,
				0.2313060164451599,
				-0.1103794202208519
			],
			"type":"VEC3"
		},
		{
			"bufferView":9,
			"componentType":5126,
			"count":225,
			"type":"VEC3"
		},
		{
			"bufferView":10,
			"componentType":5126,
			"count":225,
			"type":"VEC2"
		},
		{
			"bufferView":11,
			"componentType":5123,
			"count":576,
			"type":"SCALAR"
		},
		{
			"bufferView":12,
			"componentType":5126,
			"count":344,
			"max":[
				0.2697086036205292,
				0.34392282366752625,
				0.5099851489067078
			],
			"min":[
				-0.2697086036205292,
				0.028421394526958466,
				-0.05450940877199173
			],
			"type":"VEC3"
		},
		{
			"bufferView":13,
			"componentType":5126,
			"count":344,
			"type":"VEC3"
		},
		{
			"bufferView":14,
			"componentType":5126,
			"count":344,
			"type":"VEC2"
		},
		{
			"bufferView":15,
			"componentType":5123,
			"count":864,
			"type":"SCALAR"
		},
		{
			"bufferView":16,
			"componentType":5126,
			"count":186,
			"max":[
				0.11424984782934189,
				1.7355973720550537,
				0.1885940134525299
			],
			"min":[
				-0.11424513906240463,
				1.0780619382858276,
				-0.046941839158535004
			],
			"type":"VEC3"
		},
		{
			"bufferView":17,
			"componentType":5126,
			"count":186,
			"type":"VEC3"
		},
		{
			"bufferView":18,
			"componentType":5126,
			"count":186,
			"type":"VEC2"
		},
		{
			"bufferView":19,
			"componentType":5123,
			"count":912,
			"type":"SCALAR"
		},
		{
			"bufferView":20,
			"componentType":5126,
			"count":336,
			"max":[
				0.3997161090373993,
				1.6062777042388916,
				0.21989618241786957
			],
			"min":[
				-0.39971140027046204,
				0.8542917370796204,
				-0.12931522727012634
			],
			"type":"VEC3"
		},
		{
			"bufferView":21,
			"componentType":5126,
			"count":336,
			"type":"VEC3"
		},
		{
			"bufferView":22,
			"componentType":5126,
			"count":336,
			"type":"VEC2"
		},
		{
			"bufferView":23,
			"componentType":5123,
			"count":924,
			"type":"SCALAR"
		}
	],
	"bufferViews":[
		{
			"buffer":0,
			"byteLength":13536,
			"byteOffset":0,
			"target":34962
		},
		{
			"buffer":0,
			"byteLength":13536,
			"byteOffset":13536,
			"target":34962
		},
		{
			"buffer":0,
			"byteLength":9024,
			"byteOffset":27072,
			"target":34962
		},
		{
			"buffer":0,
			"byteLength":4656,
			"byteOffset":36096,
			"target":34963
		},
		{
			"buffer":0,
			"byteLength":5316,
			"byteOffset":40752,
			"target":34962
		},
		{
			"buffer":0,
			"byteLength":5316,
			"byteOffset":46068,
			"target":34962
		},
		{
			"buffer":0,
			"byteLength":3544,
			"byteOffset":51384,
			"target":34962
		},
		{
			"buffer":0,
			"byteLength":2592,
			"byteOffset":54928,
			"target":34963
		},
		{
			"buffer":0,
			"byteLength":2700,
			"byteOffset":57520,
			"target":34962
		},
		{
			"buffer":0,
			"byteLength":2700,
			"byteOffset":60220,
			"target":34962
		},
		{
			"buffer":0,
			"byteLength":1800,
			"byteOffset":62920,
			"target":34962
		},
		{
			"buffer":0,
			"byteLength":1152,
			"byteOffset":64720,
			"target":34963
		},
		{
			"buffer":0,
			"byteLength":4128,
			"byteOffset":65872,
			"target":34962
		},
		{
			"buffer":0,
			"byteLength":4128,
			"byteOffset":70000,
			"target":34962
		},
		{
			"buffer":0,
			"byteLength":2752,
			"byteOffset":74128,
			"target":34962
		},
		{
			"buffer":0,
			"byteLength":1728,
			"byteOffset":76880,
			"target":34963
		},
		{
			"buffer":0,
			"byteLength":2232,
			"byteOffset":78608,
			"target":34962
		},
		{
			"buffer":0,
			"byteLength":2232,
			"byteOffset":80840,
			"target":34962
		},
		{
			"buffer":0,
			"byteLength":1488,
			"byteOffset":83072,
			"target":34962
		},
		{
			"buffer":0,
			"byteLength":1824,
			"byteOffset":84560,
			"target":34963
		},
		{
			"buffer":0,
			"byteLength":4032,
			"byteOffset":86384,
			"target":34962
		},
		{
			"buffer":0,
			"byteLength":4032,
			"byteOffset":90416,
			"target":34962
		},
		{
			"buffer":0,
			"byteLength":2688,
			"byteOffset":94448,
			"target":34962
		},
		{
			"buffer":0,
			"byteLength":1848,
			"byteOffset":97136,
			"target":34963
		}
	],
	"samplers":[
		{
			"magFilter":9728,
			"minFilter":9984
		}
	],
	"buffers":[
		{
			"byteLength":98984,
			"uri":"k-07.bin"
		}
	]
}
