{
	"asset":{
		"generator":"Khronos glTF Blender I/O v4.3.47",
		"version":"2.0"
	},
	"scene":0,
	"scenes":[
		{
			"name":"Scene",
			"nodes":[
				14
			]
		}
	],
	"nodes":[
		{
			"name":"Bone.006",
			"rotation":[
				0.000108514548628591,
				-0.010414292104542255,
				0.010414297692477703,
				0.9998915791511536
			],
			"scale":[
				1,
				0.9999999403953552,
				0.9999998807907104
			],
			"translation":[
				-1.396293303201901e-08,
				0.08175164461135864,
				5.345723863570129e-14
			]
		},
		{
			"children":[
				0
			],
			"name":"Bone.005",
			"rotation":[
				0,
				1.862645149230957e-09,
				-1.5964857137514352e-16,
				1
			],
			"scale":[
				1,
				0.9999999403953552,
				1
			],
			"translation":[
				-1.3841030543915167e-08,
				0.07997435331344604,
				3.954879839959159e-14
			]
		},
		{
			"children":[
				1
			],
			"name":"Bone.004",
			"rotation":[
				-7.863476639613509e-05,
				0.00892728753387928,
				-0.008927293121814728,
				0.9999203085899353
			],
			"scale":[
				1,
				0.9999999403953552,
				0.9999998807907104
			],
			"translation":[
				-7.953443237340707e-09,
				0.09953933954238892,
				-1.9031176634598523e-10
			]
		},
		{
			"children":[
				2
			],
			"name":"Bone.003",
			"rotation":[
				1.1755032574001234e-05,
				-0.0007317830459214747,
				0.0007316998089663684,
				0.999999463558197
			],
			"scale":[
				1,
				1,
				1.0000001192092896
			],
			"translation":[
				-6.1059113320993674e-09,
				0.10842421650886536,
				1.5588597079840838e-10
			]
		},
		{
			"children":[
				3
			],
			"name":"Bone.002",
			"rotation":[
				0.49179673194885254,
				-0.510960578918457,
				-0.4971673786640167,
				0.4998798966407776
			],
			"scale":[
				0.9999998807907104,
				1.0000001192092896,
				0.9999999403953552
			],
			"translation":[
				-1.2710188457276672e-10,
				0.20417046546936035,
				-1.447403548127113e-07
			]
		},
		{
			"children":[
				4
			],
			"name":"RigthArm",
			"rotation":[
				0.49999240040779114,
				-0.4972345530986786,
				0.5027654767036438,
				0.49999234080314636
			],
			"scale":[
				0.9999999403953552,
				0.9999999403953552,
				1
			],
			"translation":[
				0,
				1,
				7.105427357601002e-15
			]
		},
		{
			"name":"Bone.012",
			"rotation":[
				0.00043591493158601224,
				0.03341584652662277,
				-0.03343173488974571,
				0.9988821744918823
			],
			"scale":[
				1,
				0.9999999403953552,
				1
			],
			"translation":[
				-3.5499724049259385e-08,
				0.08710135519504547,
				2.0688162294391077e-10
			]
		},
		{
			"children":[
				6
			],
			"name":"Bone.011",
			"rotation":[
				-4.460936179384589e-05,
				0.0019907562527805567,
				-0.0019903534557670355,
				0.9999960064888
			],
			"translation":[
				-2.8116442507553074e-09,
				0.0728871077299118,
				3.204547738278052e-10
			]
		},
		{
			"children":[
				7
			],
			"name":"Bone.010",
			"rotation":[
				0.00014966032176744193,
				-0.012191757559776306,
				0.012191755697131157,
				0.9998513460159302
			],
			"scale":[
				0.9999999403953552,
				1,
				1
			],
			"translation":[
				7.332853768637904e-10,
				0.1030779480934143,
				2.095545958979983e-14
			]
		},
		{
			"children":[
				8
			],
			"name":"Bone.009",
			"rotation":[
				3.5578234050548125e-15,
				-1.0484656698395156e-08,
				1.4357770885837368e-14,
				1
			],
			"scale":[
				1,
				0.9999999403953552,
				0.9999999403953552
			],
			"translation":[
				8.293100650647034e-10,
				0.1066325306892395,
				1.021405182655144e-14
			]
		},
		{
			"children":[
				9
			],
			"name":"Bone.008",
			"rotation":[
				-0.4928353726863861,
				-0.4999488294124603,
				0.4999487102031708,
				0.507164478302002
			],
			"scale":[
				0.9999998807907104,
				1,
				0.9999999403953552
			],
			"translation":[
				-5.589058105215372e-10,
				0.20283393561840057,
				5.8430934757325304e-08
			]
		},
		{
			"children":[
				10
			],
			"name":"LeftArm",
			"rotation":[
				-0.507164478302002,
				-0.49994876980781555,
				-0.49994876980781555,
				0.4928353726863861
			],
			"scale":[
				0.9999998807907104,
				0.9999996423721313,
				0.9999998807907104
			],
			"translation":[
				0,
				1,
				7.105427357601002e-15
			]
		},
		{
			"children":[
				5,
				11
			],
			"name":"RootBone",
			"rotation":[
				-3.774895063202166e-08,
				0,
				0,
				1
			]
		},
		{
			"mesh":0,
			"name":"WarBanner",
			"skin":0
		},
		{
			"children":[
				13,
				12
			],
			"name":"Armature",
			"scale":[
				4.900000095367432,
				4.900000095367432,
				4.900000095367432
			]
		}
	],
	"animations":[
		{
			"channels":[
				{
					"sampler":0,
					"target":{
						"node":12,
						"path":"translation"
					}
				},
				{
					"sampler":1,
					"target":{
						"node":12,
						"path":"rotation"
					}
				},
				{
					"sampler":2,
					"target":{
						"node":12,
						"path":"scale"
					}
				},
				{
					"sampler":3,
					"target":{
						"node":5,
						"path":"translation"
					}
				},
				{
					"sampler":4,
					"target":{
						"node":5,
						"path":"rotation"
					}
				},
				{
					"sampler":5,
					"target":{
						"node":5,
						"path":"scale"
					}
				},
				{
					"sampler":6,
					"target":{
						"node":4,
						"path":"translation"
					}
				},
				{
					"sampler":7,
					"target":{
						"node":4,
						"path":"rotation"
					}
				},
				{
					"sampler":8,
					"target":{
						"node":4,
						"path":"scale"
					}
				},
				{
					"sampler":9,
					"target":{
						"node":3,
						"path":"translation"
					}
				},
				{
					"sampler":10,
					"target":{
						"node":3,
						"path":"rotation"
					}
				},
				{
					"sampler":11,
					"target":{
						"node":3,
						"path":"scale"
					}
				},
				{
					"sampler":12,
					"target":{
						"node":2,
						"path":"translation"
					}
				},
				{
					"sampler":13,
					"target":{
						"node":2,
						"path":"rotation"
					}
				},
				{
					"sampler":14,
					"target":{
						"node":2,
						"path":"scale"
					}
				},
				{
					"sampler":15,
					"target":{
						"node":1,
						"path":"translation"
					}
				},
				{
					"sampler":16,
					"target":{
						"node":1,
						"path":"rotation"
					}
				},
				{
					"sampler":17,
					"target":{
						"node":1,
						"path":"scale"
					}
				},
				{
					"sampler":18,
					"target":{
						"node":0,
						"path":"translation"
					}
				},
				{
					"sampler":19,
					"target":{
						"node":0,
						"path":"rotation"
					}
				},
				{
					"sampler":20,
					"target":{
						"node":0,
						"path":"scale"
					}
				},
				{
					"sampler":21,
					"target":{
						"node":11,
						"path":"translation"
					}
				},
				{
					"sampler":22,
					"target":{
						"node":11,
						"path":"rotation"
					}
				},
				{
					"sampler":23,
					"target":{
						"node":11,
						"path":"scale"
					}
				},
				{
					"sampler":24,
					"target":{
						"node":10,
						"path":"translation"
					}
				},
				{
					"sampler":25,
					"target":{
						"node":10,
						"path":"rotation"
					}
				},
				{
					"sampler":26,
					"target":{
						"node":10,
						"path":"scale"
					}
				},
				{
					"sampler":27,
					"target":{
						"node":9,
						"path":"translation"
					}
				},
				{
					"sampler":28,
					"target":{
						"node":9,
						"path":"rotation"
					}
				},
				{
					"sampler":29,
					"target":{
						"node":9,
						"path":"scale"
					}
				},
				{
					"sampler":30,
					"target":{
						"node":8,
						"path":"translation"
					}
				},
				{
					"sampler":31,
					"target":{
						"node":8,
						"path":"rotation"
					}
				},
				{
					"sampler":32,
					"target":{
						"node":8,
						"path":"scale"
					}
				},
				{
					"sampler":33,
					"target":{
						"node":7,
						"path":"translation"
					}
				},
				{
					"sampler":34,
					"target":{
						"node":7,
						"path":"rotation"
					}
				},
				{
					"sampler":35,
					"target":{
						"node":7,
						"path":"scale"
					}
				},
				{
					"sampler":36,
					"target":{
						"node":6,
						"path":"translation"
					}
				},
				{
					"sampler":37,
					"target":{
						"node":6,
						"path":"rotation"
					}
				},
				{
					"sampler":38,
					"target":{
						"node":6,
						"path":"scale"
					}
				}
			],
			"name":"Loop",
			"samplers":[
				{
					"input":13,
					"interpolation":"STEP",
					"output":14
				},
				{
					"input":15,
					"interpolation":"LINEAR",
					"output":16
				},
				{
					"input":13,
					"interpolation":"STEP",
					"output":17
				},
				{
					"input":13,
					"interpolation":"STEP",
					"output":18
				},
				{
					"input":13,
					"interpolation":"STEP",
					"output":19
				},
				{
					"input":13,
					"interpolation":"STEP",
					"output":20
				},
				{
					"input":13,
					"interpolation":"STEP",
					"output":21
				},
				{
					"input":13,
					"interpolation":"STEP",
					"output":22
				},
				{
					"input":13,
					"interpolation":"STEP",
					"output":23
				},
				{
					"input":13,
					"interpolation":"STEP",
					"output":24
				},
				{
					"input":15,
					"interpolation":"LINEAR",
					"output":25
				},
				{
					"input":13,
					"interpolation":"LINEAR",
					"output":26
				},
				{
					"input":13,
					"interpolation":"LINEAR",
					"output":27
				},
				{
					"input":15,
					"interpolation":"LINEAR",
					"output":28
				},
				{
					"input":13,
					"interpolation":"LINEAR",
					"output":29
				},
				{
					"input":13,
					"interpolation":"LINEAR",
					"output":30
				},
				{
					"input":15,
					"interpolation":"LINEAR",
					"output":31
				},
				{
					"input":13,
					"interpolation":"STEP",
					"output":32
				},
				{
					"input":13,
					"interpolation":"LINEAR",
					"output":33
				},
				{
					"input":15,
					"interpolation":"LINEAR",
					"output":34
				},
				{
					"input":13,
					"interpolation":"LINEAR",
					"output":35
				},
				{
					"input":13,
					"interpolation":"STEP",
					"output":36
				},
				{
					"input":13,
					"interpolation":"STEP",
					"output":37
				},
				{
					"input":13,
					"interpolation":"STEP",
					"output":38
				},
				{
					"input":13,
					"interpolation":"STEP",
					"output":39
				},
				{
					"input":13,
					"interpolation":"STEP",
					"output":40
				},
				{
					"input":13,
					"interpolation":"STEP",
					"output":41
				},
				{
					"input":13,
					"interpolation":"STEP",
					"output":42
				},
				{
					"input":15,
					"interpolation":"LINEAR",
					"output":43
				},
				{
					"input":13,
					"interpolation":"LINEAR",
					"output":44
				},
				{
					"input":13,
					"interpolation":"LINEAR",
					"output":45
				},
				{
					"input":15,
					"interpolation":"LINEAR",
					"output":46
				},
				{
					"input":13,
					"interpolation":"LINEAR",
					"output":47
				},
				{
					"input":13,
					"interpolation":"LINEAR",
					"output":48
				},
				{
					"input":15,
					"interpolation":"LINEAR",
					"output":49
				},
				{
					"input":13,
					"interpolation":"LINEAR",
					"output":50
				},
				{
					"input":13,
					"interpolation":"LINEAR",
					"output":51
				},
				{
					"input":15,
					"interpolation":"LINEAR",
					"output":52
				},
				{
					"input":13,
					"interpolation":"LINEAR",
					"output":53
				}
			]
		}
	],
	"materials":[
		{
			"doubleSided":true,
			"name":"WarBanner",
			"pbrMetallicRoughness":{
				"baseColorFactor":[
					0.800000011920929,
					0.800000011920929,
					0.800000011920929,
					1
				],
				"metallicFactor":0,
				"roughnessFactor":0.5
			}
		},
		{
			"doubleSided":true,
			"name":"WarBannerAlpha",
			"pbrMetallicRoughness":{
				"baseColorFactor":[
					0.800000011920929,
					0.800000011920929,
					0.800000011920929,
					1
				],
				"metallicFactor":0,
				"roughnessFactor":0.5
			}
		}
	],
	"meshes":[
		{
			"name":"WarBanner",
			"primitives":[
				{
					"attributes":{
						"POSITION":0,
						"NORMAL":1,
						"TEXCOORD_0":2,
						"JOINTS_0":3,
						"WEIGHTS_0":4
					},
					"indices":5,
					"material":0
				},
				{
					"attributes":{
						"POSITION":6,
						"NORMAL":7,
						"TEXCOORD_0":8,
						"JOINTS_0":9,
						"WEIGHTS_0":10
					},
					"indices":11,
					"material":1
				}
			]
		}
	],
	"skins":[
		{
			"inverseBindMatrices":12,
			"joints":[
				12,
				5,
				4,
				3,
				2,
				1,
				0,
				11,
				10,
				9,
				8,
				7,
				6
			],
			"name":"Armature"
		}
	],
	"accessors":[
		{
			"bufferView":0,
			"componentType":5126,
			"count":907,
			"max":[
				2.6449992656707764,
				6.999999523162842,
				0.5812089443206787
			],
			"min":[
				-2.6450002193450928,
				-0.0008048414601944387,
				-0.35156509280204773
			],
			"type":"VEC3"
		},
		{
			"bufferView":1,
			"componentType":5126,
			"count":907,
			"type":"VEC3"
		},
		{
			"bufferView":2,
			"componentType":5126,
			"count":907,
			"type":"VEC2"
		},
		{
			"bufferView":3,
			"componentType":5121,
			"count":907,
			"type":"VEC4"
		},
		{
			"bufferView":4,
			"componentType":5126,
			"count":907,
			"type":"VEC4"
		},
		{
			"bufferView":5,
			"componentType":5123,
			"count":2484,
			"type":"SCALAR"
		},
		{
			"bufferView":6,
			"componentType":5126,
			"count":50,
			"max":[
				1.8728410005569458,
				4.832669734954834,
				3.6931868407918955e-07
			],
			"min":[
				-1.8771591186523438,
				2.6876704692840576,
				2.4474715587530227e-07
			],
			"type":"VEC3"
		},
		{
			"bufferView":7,
			"componentType":5126,
			"count":50,
			"type":"VEC3"
		},
		{
			"bufferView":8,
			"componentType":5126,
			"count":50,
			"type":"VEC2"
		},
		{
			"bufferView":9,
			"componentType":5121,
			"count":50,
			"type":"VEC4"
		},
		{
			"bufferView":10,
			"componentType":5126,
			"count":50,
			"type":"VEC4"
		},
		{
			"bufferView":11,
			"componentType":5123,
			"count":192,
			"type":"SCALAR"
		},
		{
			"bufferView":12,
			"componentType":5126,
			"count":13,
			"type":"MAT4"
		},
		{
			"bufferView":13,
			"componentType":5126,
			"count":2,
			"max":[
				3.3333333333333335
			],
			"min":[
				0.041666666666666664
			],
			"type":"SCALAR"
		},
		{
			"bufferView":14,
			"componentType":5126,
			"count":2,
			"type":"VEC3"
		},
		{
			"bufferView":15,
			"componentType":5126,
			"count":80,
			"max":[
				3.3333333333333335
			],
			"min":[
				0.041666666666666664
			],
			"type":"SCALAR"
		},
		{
			"bufferView":16,
			"componentType":5126,
			"count":80,
			"type":"VEC4"
		},
		{
			"bufferView":17,
			"componentType":5126,
			"count":2,
			"type":"VEC3"
		},
		{
			"bufferView":18,
			"componentType":5126,
			"count":2,
			"type":"VEC3"
		},
		{
			"bufferView":19,
			"componentType":5126,
			"count":2,
			"type":"VEC4"
		},
		{
			"bufferView":20,
			"componentType":5126,
			"count":2,
			"type":"VEC3"
		},
		{
			"bufferView":21,
			"componentType":5126,
			"count":2,
			"type":"VEC3"
		},
		{
			"bufferView":22,
			"componentType":5126,
			"count":2,
			"type":"VEC4"
		},
		{
			"bufferView":23,
			"componentType":5126,
			"count":2,
			"type":"VEC3"
		},
		{
			"bufferView":24,
			"componentType":5126,
			"count":2,
			"type":"VEC3"
		},
		{
			"bufferView":25,
			"componentType":5126,
			"count":80,
			"type":"VEC4"
		},
		{
			"bufferView":26,
			"componentType":5126,
			"count":2,
			"type":"VEC3"
		},
		{
			"bufferView":27,
			"componentType":5126,
			"count":2,
			"type":"VEC3"
		},
		{
			"bufferView":28,
			"componentType":5126,
			"count":80,
			"type":"VEC4"
		},
		{
			"bufferView":29,
			"componentType":5126,
			"count":2,
			"type":"VEC3"
		},
		{
			"bufferView":30,
			"componentType":5126,
			"count":2,
			"type":"VEC3"
		},
		{
			"bufferView":31,
			"componentType":5126,
			"count":80,
			"type":"VEC4"
		},
		{
			"bufferView":32,
			"componentType":5126,
			"count":2,
			"type":"VEC3"
		},
		{
			"bufferView":33,
			"componentType":5126,
			"count":2,
			"type":"VEC3"
		},
		{
			"bufferView":34,
			"componentType":5126,
			"count":80,
			"type":"VEC4"
		},
		{
			"bufferView":35,
			"componentType":5126,
			"count":2,
			"type":"VEC3"
		},
		{
			"bufferView":36,
			"componentType":5126,
			"count":2,
			"type":"VEC3"
		},
		{
			"bufferView":37,
			"componentType":5126,
			"count":2,
			"type":"VEC4"
		},
		{
			"bufferView":38,
			"componentType":5126,
			"count":2,
			"type":"VEC3"
		},
		{
			"bufferView":39,
			"componentType":5126,
			"count":2,
			"type":"VEC3"
		},
		{
			"bufferView":40,
			"componentType":5126,
			"count":2,
			"type":"VEC4"
		},
		{
			"bufferView":41,
			"componentType":5126,
			"count":2,
			"type":"VEC3"
		},
		{
			"bufferView":42,
			"componentType":5126,
			"count":2,
			"type":"VEC3"
		},
		{
			"bufferView":43,
			"componentType":5126,
			"count":80,
			"type":"VEC4"
		},
		{
			"bufferView":44,
			"componentType":5126,
			"count":2,
			"type":"VEC3"
		},
		{
			"bufferView":45,
			"componentType":5126,
			"count":2,
			"type":"VEC3"
		},
		{
			"bufferView":46,
			"componentType":5126,
			"count":80,
			"type":"VEC4"
		},
		{
			"bufferView":47,
			"componentType":5126,
			"count":2,
			"type":"VEC3"
		},
		{
			"bufferView":48,
			"componentType":5126,
			"count":2,
			"type":"VEC3"
		},
		{
			"bufferView":49,
			"componentType":5126,
			"count":80,
			"type":"VEC4"
		},
		{
			"bufferView":50,
			"componentType":5126,
			"count":2,
			"type":"VEC3"
		},
		{
			"bufferView":51,
			"componentType":5126,
			"count":2,
			"type":"VEC3"
		},
		{
			"bufferView":52,
			"componentType":5126,
			"count":80,
			"type":"VEC4"
		},
		{
			"bufferView":53,
			"componentType":5126,
			"count":2,
			"type":"VEC3"
		}
	],
	"bufferViews":[
		{
			"buffer":0,
			"byteLength":10884,
			"byteOffset":0,
			"target":34962
		},
		{
			"buffer":0,
			"byteLength":10884,
			"byteOffset":10884,
			"target":34962
		},
		{
			"buffer":0,
			"byteLength":7256,
			"byteOffset":21768,
			"target":34962
		},
		{
			"buffer":0,
			"byteLength":3628,
			"byteOffset":29024,
			"target":34962
		},
		{
			"buffer":0,
			"byteLength":14512,
			"byteOffset":32652,
			"target":34962
		},
		{
			"buffer":0,
			"byteLength":4968,
			"byteOffset":47164,
			"target":34963
		},
		{
			"buffer":0,
			"byteLength":600,
			"byteOffset":52132,
			"target":34962
		},
		{
			"buffer":0,
			"byteLength":600,
			"byteOffset":52732,
			"target":34962
		},
		{
			"buffer":0,
			"byteLength":400,
			"byteOffset":53332,
			"target":34962
		},
		{
			"buffer":0,
			"byteLength":200,
			"byteOffset":53732,
			"target":34962
		},
		{
			"buffer":0,
			"byteLength":800,
			"byteOffset":53932,
			"target":34962
		},
		{
			"buffer":0,
			"byteLength":384,
			"byteOffset":54732,
			"target":34963
		},
		{
			"buffer":0,
			"byteLength":832,
			"byteOffset":55116
		},
		{
			"buffer":0,
			"byteLength":8,
			"byteOffset":55948
		},
		{
			"buffer":0,
			"byteLength":24,
			"byteOffset":55956
		},
		{
			"buffer":0,
			"byteLength":320,
			"byteOffset":55980
		},
		{
			"buffer":0,
			"byteLength":1280,
			"byteOffset":56300
		},
		{
			"buffer":0,
			"byteLength":24,
			"byteOffset":57580
		},
		{
			"buffer":0,
			"byteLength":24,
			"byteOffset":57604
		},
		{
			"buffer":0,
			"byteLength":32,
			"byteOffset":57628
		},
		{
			"buffer":0,
			"byteLength":24,
			"byteOffset":57660
		},
		{
			"buffer":0,
			"byteLength":24,
			"byteOffset":57684
		},
		{
			"buffer":0,
			"byteLength":32,
			"byteOffset":57708
		},
		{
			"buffer":0,
			"byteLength":24,
			"byteOffset":57740
		},
		{
			"buffer":0,
			"byteLength":24,
			"byteOffset":57764
		},
		{
			"buffer":0,
			"byteLength":1280,
			"byteOffset":57788
		},
		{
			"buffer":0,
			"byteLength":24,
			"byteOffset":59068
		},
		{
			"buffer":0,
			"byteLength":24,
			"byteOffset":59092
		},
		{
			"buffer":0,
			"byteLength":1280,
			"byteOffset":59116
		},
		{
			"buffer":0,
			"byteLength":24,
			"byteOffset":60396
		},
		{
			"buffer":0,
			"byteLength":24,
			"byteOffset":60420
		},
		{
			"buffer":0,
			"byteLength":1280,
			"byteOffset":60444
		},
		{
			"buffer":0,
			"byteLength":24,
			"byteOffset":61724
		},
		{
			"buffer":0,
			"byteLength":24,
			"byteOffset":61748
		},
		{
			"buffer":0,
			"byteLength":1280,
			"byteOffset":61772
		},
		{
			"buffer":0,
			"byteLength":24,
			"byteOffset":63052
		},
		{
			"buffer":0,
			"byteLength":24,
			"byteOffset":63076
		},
		{
			"buffer":0,
			"byteLength":32,
			"byteOffset":63100
		},
		{
			"buffer":0,
			"byteLength":24,
			"byteOffset":63132
		},
		{
			"buffer":0,
			"byteLength":24,
			"byteOffset":63156
		},
		{
			"buffer":0,
			"byteLength":32,
			"byteOffset":63180
		},
		{
			"buffer":0,
			"byteLength":24,
			"byteOffset":63212
		},
		{
			"buffer":0,
			"byteLength":24,
			"byteOffset":63236
		},
		{
			"buffer":0,
			"byteLength":1280,
			"byteOffset":63260
		},
		{
			"buffer":0,
			"byteLength":24,
			"byteOffset":64540
		},
		{
			"buffer":0,
			"byteLength":24,
			"byteOffset":64564
		},
		{
			"buffer":0,
			"byteLength":1280,
			"byteOffset":64588
		},
		{
			"buffer":0,
			"byteLength":24,
			"byteOffset":65868
		},
		{
			"buffer":0,
			"byteLength":24,
			"byteOffset":65892
		},
		{
			"buffer":0,
			"byteLength":1280,
			"byteOffset":65916
		},
		{
			"buffer":0,
			"byteLength":24,
			"byteOffset":67196
		},
		{
			"buffer":0,
			"byteLength":24,
			"byteOffset":67220
		},
		{
			"buffer":0,
			"byteLength":1280,
			"byteOffset":67244
		},
		{
			"buffer":0,
			"byteLength":24,
			"byteOffset":68524
		}
	],
	"buffers":[
		{
			"byteLength":68548,
			"uri":"flag.bin"
		}
	]
}
